<?xml version="1.0" encoding="utf-8"?>
<!-- Generator: Adobe Illustrator 19.0.0, SVG Export Plug-In . SVG Version: 6.00 Build 0)  -->
<svg version="1.1" id="Layer_1" xmlns="http://www.w3.org/2000/svg" xmlns:xlink="http://www.w3.org/1999/xlink" x="0px" y="0px"
	 viewBox="0 0 300 300" style="enable-background:new 0 0 300 300;" xml:space="preserve">
<style type="text/css">
	.st0{fill:#FFFFFF;}
</style>
<g id="XMLID_37_">
	<path id="XMLID_48_" class="st0" d="M52.6,229.4h10.9l5.7,18.4c1.1,3.6,1.8,6.8,2.2,9.3h0.1c0.3-2.3,0.7-4.1,1.1-5.6l6.3-22.2H90
		l-13.8,41.7h-9.7L52.6,229.4z"/>
	<path id="XMLID_46_" class="st0" d="M96,229.4h10.4v41.7H96V229.4z"/>
	<path id="XMLID_44_" class="st0" d="M116.6,229.4h10.4V249h0.2l9.8-19.6H148l-10.7,21.3l10.2,20.4h-11.5l-8.9-17.3h-0.2v17.3h-10.4
		V229.4z"/>
	<path id="XMLID_42_" class="st0" d="M153.6,229.4H164v41.7h-10.4V229.4z"/>
	<path id="XMLID_40_" class="st0" d="M174.2,229.4h10.5l13.2,24l-0.4-4.5v-19.5H208v41.7h-10.7l-13-23.7l0.3,5.2v18.5h-10.4V229.4z"
		/>
	<path id="XMLID_38_" class="st0" d="M249.4,247.8v7c0,5.4-1.4,9.7-4.3,12.8c-2.9,3.1-6.8,4.6-11.8,4.6c-5.6,0-9.9-1.9-13-5.7
		c-3-3.8-4.6-9.3-4.6-16.3c0-7.1,1.5-12.6,4.6-16.3c3-3.7,7.5-5.5,13.3-5.5c6.6,0,11.3,3.2,14.2,9.5l-9.9,3.7
		c-0.8-1.3-1.6-2.3-2.3-2.9c-0.7-0.6-1.7-0.9-2.9-0.9c-2.1,0-3.6,1-4.5,3c-0.9,2-1.3,5.3-1.3,9.8c0,4.2,0.5,7.3,1.5,9.2
		c1,2,2.6,3,4.8,3c3.5,0,5.3-2.3,5.4-6.8h-4.8v-8.1H249.4z"/>
</g>
<g id="XMLID_30_">
	<path id="XMLID_36_" class="st0" d="M218,176.1c-15.4-8.9-21.6-19.4-20.2-36.2c1.2-13.8,6.5-23.2,21.4-29c-4.4,10-3.9,23.1,1.3,33
		c5,9.3,9.3,14,21.2,17c-1.2,2-2.2,3-3.3,4.9c-2.6,2.5-5.7,5.7-7.1,7c-24.4,21.8-34.2,24.2-58.8,26.3c-14,1.2-40.4,3.4-43.3-1.8
		c-0.4-40.3,4.1-70.2,30.7-102.2c-1.6,1.1-3.5,1.9-4.9,3.2c-13.8,12.8-24,27.7-29.2,46.1c-4.9,17.3-5.2,27.7-6,45.6
		c-0.2,4-2,5.8-5.8,4.9c-6.8-1.6-13.6-3.2-20.2-5.1c-3.7-1.1-4.9-3.8-4.7-8.1c0.8-15.4-0.7-23.6,4.1-38.4c0.4-1.1,0-2.5,0-3.8
		c-0.8-0.2-1.5-0.3-2.3-0.5c-4.2,16.7-5.3,26.4-9.5,43.5c-5.2,0.5-9.6-2.8-8.6-9.3c1.7-11.5,0.3-16.2,4.4-27
		C86.5,122,102,102,125.1,89c8-4.5,16.7-9,25.6-10.4c11.5-1.7,23,0.8,32.8,8.9c7.3,6,10.4,8.2,14.5,13.5c3.4,4.4,6.5,6,3.5,10.5
		c-10,15-15.8,52.7,7.4,62.6C211.6,175.3,214.9,175.5,218,176.1z"/>
	<path id="XMLID_35_" class="st0" d="M279.5,99.3c0.7,15.6-5.1,19.9-9.4,31.6c-8.8,10.6-4.3,7.3-14.5,16.7c-9.8,9-19.4,6.9-27.8-3.8
		c-8.8-11.2-7.9-32,4.6-43c6-5.4,5.8-6,7.7-10.8c2.8-7,0.9-2.9,3-11.1c4.4-14.3,3-28.5,0.3-42.9c-1.7-9.2-2.6-18.6-3.3-28
		c-0.4-5.4,1.4-6.2,6.1-3.2c13.2,8.3,20.6,20.7,25.7,35C278.1,56.3,279.5,73.6,279.5,99.3z"/>
	<path id="XMLID_34_" class="st0" d="M11.6,17.3c7.4-2,12.7,0.8,16.2,5.7c9.5,13.5,19.4,26.9,27.4,41.3c10.4,18.7,8.4,6.1,22.8,21.9
		c0.2,0.3,0.2,0.8,0.4,2.1c-17.6,5-27.1,17.5-30.1,36.1c-1.6-0.9-3-1.2-3.6-2.1c-16.4-22.5-20.4-20.5-24-48.6
		c-2.2-17.2-1.5-29.7-5.2-46.7C15,23.8,13.2,21,11.6,17.3z"/>
	<path id="XMLID_33_" class="st0" d="M70.2,143.2c-4.1-2.7-8.7-6-13.6-8.9c-4-2.4-5.2-5.7-4.2-10c3-12.3,9.2-22.3,20.2-29.1
		c6.5-4,12.7-3.9,18.8,0.7c2.4,1.8,4.9,3.5,6.4,4.5C88.6,114.8,79.5,128.8,70.2,143.2z"/>
	<path id="XMLID_32_" class="st0" d="M72.8,185.6c7.6,7.2,24.7,17.6,56.4,19.9c23.7,1.7,49.7,1.5,84.3-10.4
		c-1.7,1.5-3,7.3-17.1,14.1c-18.9,9.1-36.1,12.6-87.3,9c-3.3-0.2-16.8-2-27.3-10.3C77.1,204.4,72.8,193.6,72.8,185.6z"/>
	<path id="XMLID_31_" class="st0" d="M335.5,336.4"/>
</g>
<g id="XMLID_2_">
	<path id="XMLID_28_" class="st0" d="M69.1,286.5c0.3-2.3,0.7-5.2,1.2-7.3l-0.1,0c-1,2-2.1,4.1-3.4,6.4l-4.6,8.1l-1.7,0l-1.3-8
		c-0.4-2.4-0.6-4.5-0.7-6.5l-0.1,0c-0.5,2.1-1.1,4.9-1.8,7.4l-1.9,7.2l-2.1,0l4.5-16.7l2.9,0l1.4,8.1c0.3,2.1,0.6,3.9,0.7,5.6l0.1,0
		c0.8-1.7,1.7-3.5,2.9-5.6l4.7-8.1l2.9,0l-2.2,16.8l-2.2,0L69.1,286.5z"/>
	<path id="XMLID_26_" class="st0" d="M79.2,277l-1.9,10c-0.7,3.8,0.7,5.4,3,5.4c2.6,0,4.5-1.7,5.3-5.4l2-10l2.3,0l-1.9,9.9
		c-1,5.2-4.2,7.3-8,7.3c-3.5,0-5.8-2-4.8-7.2l1.9-9.9L79.2,277z"/>
	<path id="XMLID_24_" class="st0" d="M90.5,291.2c0.9,0.6,2.3,1.1,3.8,1.1c2.3,0,3.9-1.2,4.2-2.9c0.3-1.6-0.4-2.5-2.6-3.4
		c-2.6-1-4.1-2.4-3.6-4.8c0.5-2.6,3.1-4.6,6.5-4.7c1.8,0,3,0.4,3.7,0.8l-1,1.8c-0.5-0.3-1.6-0.8-3.1-0.8c-2.4,0-3.5,1.4-3.8,2.6
		c-0.3,1.6,0.6,2.4,2.8,3.3c2.7,1.1,3.9,2.5,3.5,5c-0.5,2.6-2.9,4.9-7,4.9c-1.7,0-3.4-0.5-4.2-1.1L90.5,291.2z"/>
	<path id="XMLID_22_" class="st0" d="M113.5,285.9l-6.7,0l-1.2,6.2l7.5,0l-0.4,1.9l-9.7,0l3.3-17.1l9.4-0.1l-0.4,1.9l-7.1,0
		l-1.1,5.4l6.7,0L113.5,285.9z"/>
	<path id="XMLID_20_" class="st0" d="M121.2,276.7l-2,10.2c-0.8,3.9,0.7,5.5,3,5.5c2.6,0,4.5-1.7,5.3-5.5l2-10.2l2.3,0l-2,10.1
		c-1,5.3-4.3,7.5-8,7.5c-3.5,0-5.8-2-4.8-7.4l2-10.1L121.2,276.7z"/>
	<path id="XMLID_18_" class="st0" d="M148.4,286.3c0.3-2.4,0.8-5.4,1.2-7.5l-0.1,0c-1,2.1-2.1,4.2-3.5,6.6l-4.7,8.5l-1.7,0l-1.2-8.3
		c-0.3-2.4-0.6-4.7-0.7-6.8l-0.1,0c-0.5,2.2-1.2,5.1-1.8,7.7l-1.9,7.5l-2.1,0l4.6-17.4l2.9,0l1.3,8.4c0.3,2.1,0.5,4.1,0.6,5.9l0.1,0
		c0.8-1.8,1.8-3.7,3-5.9l4.7-8.5l2.9,0l-2.3,17.5l-2.2,0L148.4,286.3z"/>
	<path id="XMLID_15_" class="st0" d="M162.3,288.4l-2.9,5.5l-2.3,0l9.3-17.6l2.7,0l2.5,17.7l-2.4,0l-0.8-5.6L162.3,288.4z
		 M168.3,286.7l-0.7-5.1c-0.2-1.2-0.2-2.2-0.3-3.2l-0.1,0c-0.5,1-1,2.1-1.5,3.2l-2.7,5.1L168.3,286.7z"/>
	<path id="XMLID_12_" class="st0" d="M178,288.4l-2.9,5.6l-2.3,0l9.3-17.8l2.7,0l2.5,17.8l-2.4,0l-0.8-5.6L178,288.4z M184,286.6
		l-0.7-5.1c-0.2-1.2-0.2-2.2-0.3-3.2l-0.1,0c-0.5,1.1-1,2.1-1.5,3.2l-2.7,5.1L184,286.6z"/>
	<path id="XMLID_9_" class="st0" d="M193.3,276.4c1.2-0.2,2.8-0.4,4.4-0.4c2.4,0,3.9,0.4,4.7,1.4c0.7,0.8,1,2,0.7,3.4
		c-0.5,2.4-2.2,3.9-4.2,4.6l0,0.1c1.2,0.5,1.8,1.7,1.8,3.6c0.1,2.5,0.2,4.2,0.4,4.9l-2.3,0c-0.2-0.5-0.3-2-0.3-4.3
		c0-2.5-0.8-3.4-2.8-3.5l-2.1,0l-1.5,7.7l-2.2,0L193.3,276.4z M193.9,284.5l2.3,0c2.4,0,4.2-1.4,4.6-3.4c0.4-2.3-1-3.3-3.3-3.3
		c-1.1,0-1.9,0.1-2.3,0.2L193.9,284.5z"/>
	<path id="XMLID_7_" class="st0" d="M209.4,276l-1.5,7.5l8.4,0l1.5-7.6l2.3,0l-3.5,18.1l-2.3,0l1.6-8.5l-8.4,0l-1.6,8.4l-2.2,0
		l3.5-18L209.4,276z"/>
	<path id="XMLID_5_" class="st0" d="M226.2,275.9l-2.1,10.7c-0.8,4.1,0.6,5.8,2.9,5.8c2.6,0,4.6-1.8,5.3-5.8l2.1-10.8l2.3,0
		l-2.1,10.6c-1.1,5.6-4.3,7.9-8.1,7.9c-3.5,0-5.8-2.1-4.7-7.7l2.1-10.7L226.2,275.9z"/>
	<path id="XMLID_3_" class="st0" d="M237.3,291.2c0.9,0.7,2.2,1.2,3.8,1.2c2.3,0,3.9-1.3,4.2-3.1c0.3-1.7-0.4-2.7-2.6-3.6
		c-2.6-1-4.1-2.6-3.6-5.2c0.6-2.8,3.2-5,6.6-5c1.8,0,3,0.4,3.7,0.9l-1,1.9c-0.5-0.3-1.6-0.9-3.1-0.8c-2.4,0-3.6,1.5-3.8,2.8
		c-0.3,1.7,0.6,2.5,2.8,3.5c2.7,1.2,3.9,2.7,3.4,5.4c-0.6,2.8-3,5.3-7.1,5.3c-1.7,0-3.4-0.5-4.2-1.2L237.3,291.2z"/>
</g>
</svg>
